<svg
   height="13"
   width="14"
   xmlns="http://www.w3.org/2000/svg">
  <path
     d="M 7,0 A 5,5 0 0 0 2,5 C 0.892,5 0,5.892 0,7 v 2 c 0,1.108 0.892,2 2,2 H 3 V 5 a 4,4 0 0 1 4,-4 4,4 0 0 1 4,4 v 6 h 1 c 1.108,0 2,-0.892 2,-2 V 7 C 14,5.892 13.108,5 12,5 A 5,5 0 0 0 7,0 Z M 7,3.9550781 A 1.138829,1.138829 0 0 0 5.8613281,5.09375 1.138829,1.138829 0 0 0 7,6.2324219 1.138829,1.138829 0 0 0 8.1386719,5.09375 1.138829,1.138829 0 0 0 7,3.9550781 Z M 7.7519531,6.9824219 5.4960938,7.734375 V 8.4863281 H 6.1875 L 6.248047,12.248047 H 5.4960938 V 13 H 8.503906 V 12.248047 H 7.7519531 Z" />
</svg>
