<?xml version="1.0" encoding="UTF-8" standalone="no"?>
<svg version="1.0" width="18" height="18" id="svg1" xmlns="http://www.w3.org/2000/svg" xmlns:svg="http://www.w3.org/2000/svg">
  <defs id="defs1" />
  <path d="M 9,1.85 L 7.75,4.5009601 H 1.8125 C 1.6395032,4.5010729 1.5001174,4.6353131 1.5,4.8017414 V 13.198258 C 1.5001176,13.364686 1.6395033,13.498927 1.8125,13.49904 L 3.5,13.497508 L 2.484375,15.878689 C 2.3885692,16.110562 2.5072064,16.373969 2.7480469,16.46658 C 2.988506,16.558965 3.2603539,16.447508 3.3574219,16.21658 L 4.5,13.497508 H 13.5 L 14.548828,16.21658 C 14.645894,16.44858 14.92108,16.560265 15.162109,16.46658 C 15.402152,16.373198 15.517906,16.110018 15.421875,15.878689 L 14.5,13.497508 L 16.1875,13.49904 C 16.360497,13.498927 16.499882,13.364686 16.5,13.198258 V 4.8017414 C 16.499882,4.6353132 16.360497,4.5010732 16.1875,4.5009601 H 11.25 L 10,1.85 C 9.934142,1.7103305 9.7034426,1.5 9.5,1.5 C 9.2965574,1.5 9.0570824,1.7058457 9,1.85 Z M 9.5,3 L 10.25,4.5009601 H 8.75 Z M 3,6.4975079 H 4 L 5,8.2396955 L 6,6.4975079 H 7 L 5.6,8.9992666 L 7,11.497508 H 6 L 5,9.7553205 L 4,11.497508 H 3 L 4.4,8.9992666 Z M 11,6.4975079 H 12 L 13.026229,8.497508 L 14,6.4975079 H 15 L 13.520604,9.497508 V 11.497508 H 12.520604 V 9.497508 Z M 8.5,7.4975079 H 9.5 V 8.497508 H 10.5 V 9.497508 H 9.5 V 10.497508 H 8.5 V 9.497508 H 7.5 V 8.497508 H 8.5 Z" id="path1" style="opacity:1" />
</svg>
