<svg version="1.1" width="18" height="15" viewBox="0 0 18 15" xmlns="http://www.w3.org/2000/svg"
  xmlns:svg="http://www.w3.org/2000/svg">
  <path
    d="M 11.5,1.5 C 10.9477,1.5 10.5,1.9477 10.5,2.5 C 10.5,3.0523 10.9477,3.5 11.5,3.5 C 12.0523,3.5 12.5,3.0523 12.5,2.5 C 12.5,1.9477 12.0523,1.5 11.5,1.5 Z M 9.6445,3.4941 C 9.5145,3.4946 9.3898,3.5458 9.2968,3.6367 L 6.6562,6.1367 C 6.4306,6.3495 6.4511,6.7142 6.6992,6.9004 L 8.5,8.25 V 11 C 8.49,11.6762 9.5096,11.6762 9.5,11 V 8 C 9.5003,7.8426 9.4265,7.6943 9.3008,7.5996 L 8.5332,7.0234 L 10.3512,5.3022 L 11.0996,6.3007 C 11.1943,6.4265 11.3426,6.5003 11.5,6.5 H 13 C 13.6761,6.51 13.6761,5.4904 13,5.5 H 11.75 L 11,4.5 L 10.4004,3.6992 C 10.3103,3.5756 10.1685,3.5 10.0156,3.4941 Z M 4.5,7.5 C 2.8431,7.5 1.5,8.8432 1.5,10.5 C 1.5,12.1568 2.8431,13.5 4.5,13.5 C 6.1569,13.5 7.5,12.1568 7.5,10.5 C 7.5,8.8432 6.1569,7.5 4.5,7.5 Z M 13.5,7.5 C 11.8431,7.5 10.5,8.8432 10.5,10.5 C 10.5,12.1568 11.8431,13.5 13.5,13.5 C 15.1569,13.5 16.5,12.1568 16.5,10.5 C 16.5,8.8432 15.1569,7.5 13.5,7.5 Z M 4.5,8.5 C 5.6046,8.5 6.5,9.3954 6.5,10.5 C 6.5,11.6046 5.6046,12.5 4.5,12.5 C 3.3954,12.5 2.5,11.6046 2.5,10.5 C 2.5,9.3954 3.3954,8.5 4.5,8.5 Z M 13.5,8.5 C 14.6046,8.5 15.5,9.3954 15.5,10.5 C 15.5,11.6046 14.6046,12.5 13.5,12.5 C 12.3954,12.5 11.5,11.6046 11.5,10.5 C 11.5,9.3954 12.3954,8.5 13.5,8.5 Z" />
</svg>
