<?xml version="1.0" encoding="UTF-8" standalone="no"?>
<svg width="16" height="15" viewBox="0 0 16 15" version="1.1" id="svg1"
  xmlns="http://www.w3.org/2000/svg" xmlns:svg="http://www.w3.org/2000/svg">
  <path
    d="M 5.5,4.5 H 6.5 V 5.5 H 5.5 Z M 5.5,2.5 H 6.5 V 3.5 H 5.5 Z M 7.5,1.5 H 2.5 L 2.4999998,11.5 H 3.4999998 V 12.5 H 1.4999998 V 13.5 H 11.5 C 12.852601,13.5 14.5,12.875723 14.5,11.5 H 13.5 C 13.5,12.263395 12.5,12.5 11.5,12.5 H 9.5 V 11.5 H 12.5 V 10.5 C 12.5,8.988574 11.931529,8.013445 10.5,7.5 C 9.011977,6.966292 7.5045028,6.2941332 7.5,5.5 C 7.4914199,3.9867738 7.5,1.5 7.5,1.5 Z M 8.5,12.5 H 4.4999998 V 11.5 H 8.5 Z" />
</svg>
