<?xml version="1.0" encoding="UTF-8" standalone="no"?>
<svg version="1.1" id="pitch" width="14" height="16" viewBox="0 0 14 16"
  xmlns="http://www.w3.org/2000/svg" xmlns:svg="http://www.w3.org/2000/svg">
  <path
    d="M 4.5,3.5 C 3.9477,3.5 3.5,3.0523 3.5,2.5 C 3.5,1.9477 3.9477,1.5 4.5,1.5 C 5.0523,1.5 5.5,1.9477 5.5,2.5 C 5.5,3.0523 5.0523,3.5 4.5,3.5 Z M 12,10.5 H 9.5 L 8.5,7.5 L 7.5,5.75 L 8.5,5.5 L 10.8,6.5 V 6.5 C 11.0761,6.6105 11.3895,6.4761 11.5,6.2 C 11.6105,5.9239 11.4761,5.6105 11.2,5.5 V 5.5 L 8.5,4.5 H 6.5 L 4.5,5.5 L 3.5,6.5 H 2 C 1.7239,6.5 1.5,6.7239 1.5,7 C 1.5,7.2761 1.7239,7.5 2,7.5 H 4.5 L 5.5,6.5 L 6.5,8.5 L 4.5,10.5 V 14 C 4.5,14.2761 4.7239,14.5 5,14.5 C 5.2761,14.5 5.5,14.2761 5.5,14 V 10.89 L 7.5,9.5 L 8.5,11.5 H 12 C 12.2761,11.5 12.5,11.2761 12.5,11 C 12.5,10.7239 12.2761,10.5 12,10.5 Z" />
</svg>
