<svg version="1.1" width="20" height="16" viewBox="0 0 20 16" xmlns="http://www.w3.org/2000/svg"
  xmlns:svg="http://www.w3.org/2000/svg">
  <path
    d="M 18.500595,4.9576239 C 18.500595,5.9123889 17.72655,6.6864359 16.77179,6.6864359 C 15.817021,6.6864359 15.042975,5.9123889 15.042975,4.9576239 C 15.042975,4.002859 15.817021,3.2288118 16.77179,3.2288118 C 17.72655,3.2288118 18.500595,4.002859 18.500595,4.9576239 Z M 17.025345,13.474903 C 16.953541,13.336943 16.785269,13.280815 16.645007,13.348124 C 15.85598,13.831497 14.892221,13.937185 14.017214,13.636259 L 6.7216271,9.9827071 L 9.856544,8.4152474 V 4.9576239 L 11.585347,5.8220296 V 9.2796517 L 13.314162,10.144063 L 15.042975,9.2796517 L 13.314162,8.4152474 V 3.2288118 L 9.856544,1.5000003 L 8.1277273,2.364406 V 7.5508415 L 4.9928148,9.1183008 L 1.9155304,7.5854177 C 1.7722695,7.515343 1.5995039,7.5746992 1.5294279,7.7179599 C 1.4593545,7.861221 1.5187106,8.0339869 1.6619715,8.1040612 L 13.763653,14.154902 C 14.127396,14.310496 14.520642,14.385182 14.916195,14.373886 C 15.607492,14.362015 16.28645,14.188327 16.898564,13.866764 C 17.041023,13.795888 17.099108,13.62289 17.028226,13.480435 C 17.027301,13.47859 17.026265,13.476751 17.025345,13.474903 Z" />
</svg>
