<svg height="13" width="9">
  <path d="M 0.52916667,0.39687668 C 0.45587708,0.39687668 0.396875,0.45587876 0.396875,0.52916835 C 0.396875,1.3670156 0.396875,2.2048628 0.396875,3.0427101 H 0.66145834 V 2.7781267 H 1.7197917 V 3.0427101 H 1.984375 C 1.984375,2.2048628 1.984375,1.3670156 1.984375,0.52916835 C 1.984375,0.45587876 1.925373,0.39687668 1.8520834,0.39687668 C 1.7787938,0.39687668 1.7197917,0.45587876 1.7197917,0.52916835 C 1.7197917,0.83784892 1.7197917,1.1465295 1.7197917,1.45521 H 0.66145834 C 0.66145834,1.1465295 0.66145834,0.83784892 0.66145834,0.52916835 C 0.66145834,0.45587876 0.60245626,0.39687668 0.52916667,0.39687668 Z M 0.66145834,1.7197934 H 1.7197917 V 1.9843767 H 0.66145834 Z M 0.66145834,2.2489601 H 1.7197917 V 2.5135434 H 0.66145834 Z" />
</svg>
