<svg height="256" width="256" version="1.1" id="svg2" xmlns="http://www.w3.org/2000/svg"
  xmlns:svg="http://www.w3.org/2000/svg">
  <path style="fill:#6c9ae0"
    d="M 11,0 V 1 H 18 V 0 Z M 43,0 V 1 H 50 V 0 Z M 66,0 V 1 H 73 V 0 Z M 89,0 V 1 H 96 V 0 Z M 123,0 V 1 H 130 V 0 Z M 137,1 V 2 H 144 V 1 Z M 201,1 V 2 H 208 V 1 Z M 222,1 V 2 H 229 V 1 Z M 189,2 V 3 H 196 V 2 Z M 240,2 V 3 H 247 V 2 Z M 24,3 V 4 H 31 V 3 Z M 36,3 V 4 H 43 V 3 Z M 115,3 V 4 H 122 V 3 Z M 63,4 V 5 H 70 V 4 Z M 81,4 V 5 H 88 V 4 Z M 158,4 V 5 H 165 V 4 Z M 170,4 V 5 H 177 V 4 Z M 215,4 V 5 H 222 V 4 Z M 8,5 V 6 H 15 V 5 Z M 48,5 V 6 H 55 V 5 Z M 96,5 V 6 H 103 V 5 Z M 148,5 V 6 H 155 V 5 Z M 232,5 V 6 H 239 V 5 Z M 247,5 V 6 H 254 V 5 Z M 107,6 V 7 H 114 V 6 Z M 179,6 V 7 H 186 V 6 Z M 197,6 V 7 H 204 V 6 Z M 16,7 V 8 H 23 V 7 Z M 138,7 V 8 H 145 V 7 Z M 56,8 V 9 H 63 V 8 Z M 126,8 V 9 H 133 V 8 Z M 207,8 V 9 H 214 V 8 Z M 0,9 V 10 H 5 V 9 Z M 67,9 V 10 H 74 V 9 Z M 80,9 V 10 H 87 V 9 Z M 94,9 V 10 H 101 V 9 Z M 188,9 V 10 H 195 V 9 Z M 226,9 V 10 H 233 V 9 Z M 254,9 V 10 H 256 V 9 Z M 27,10 V 11 H 34 V 10 Z M 36,10 V 11 H 43 V 10 Z M 113,10 V 11 H 120 V 10 Z M 155,10 V 11 H 162 V 10 Z M 142,11 V 12 H 149 V 11 Z M 169,11 V 12 H 176 V 11 Z M 214,11 V 12 H 221 V 11 Z M 244,11 V 12 H 251 V 11 Z M 16,12 V 13 H 23 V 12 Z M 48,12 V 13 H 55 V 12 Z M 4,13 V 14 H 11 V 13 Z M 73,13 V 14 H 80 V 13 Z M 88,13 V 14 H 95 V 13 Z M 105,13 V 14 H 112 V 13 Z M 178,13 V 14 H 185 V 13 Z M 58,14 V 15 H 65 V 14 Z M 124,14 V 15 H 131 V 14 Z M 135,14 V 15 H 142 V 14 Z M 160,14 V 15 H 167 V 14 Z M 205,14 V 15 H 212 V 14 Z M 237,14 V 15 H 244 V 14 Z M 38,15 V 16 H 45 V 15 Z M 191,15 V 16 H 198 V 15 Z M 223,15 V 16 H 230 V 15 Z M 26,16 V 17 H 33 V 16 Z M 93,17 V 18 H 100 V 17 Z M 116,17 V 18 H 123 V 17 Z M 147,17 V 18 H 154 V 17 Z M 183,17 V 18 H 190 V 17 Z M 0,18 V 19 H 1 V 18 Z M 5,18 V 19 H 12 V 18 Z M 15,18 V 19 H 22 V 18 Z M 44,18 V 19 H 51 V 18 Z M 61,18 V 19 H 68 V 18 Z M 81,18 V 19 H 88 V 18 Z M 158,18 V 19 H 165 V 18 Z M 170,18 V 19 H 177 V 18 Z M 198,18 V 19 H 205 V 18 Z M 215,18 V 19 H 222 V 18 Z M 230,18 V 19 H 237 V 18 Z M 250,18 V 19 H 256 V 18 Z M 105,19 V 20 H 112 V 19 Z M 128,19 V 20 H 135 V 19 Z M 73,20 V 21 H 80 V 20 Z M 33,21 V 22 H 40 V 21 Z M 139,21 V 22 H 146 V 21 Z M 51,22 V 23 H 58 V 22 Z M 97,22 V 23 H 104 V 22 Z M 112,22 V 23 H 119 V 22 Z M 173,22 V 23 H 180 V 22 Z M 189,22 V 23 H 196 V 22 Z M 205,22 V 23 H 212 V 22 Z M 237,22 V 23 H 244 V 22 Z M 0,23 V 24 H 4 V 23 Z M 24,23 V 24 H 31 V 23 Z M 64,23 V 24 H 71 V 23 Z M 149,23 V 24 H 156 V 23 Z M 221,23 V 24 H 228 V 23 Z M 253,23 V 24 H 256 V 23 Z M 14,24 V 25 H 21 V 24 Z M 121,24 V 25 H 128 V 24 Z M 159,24 V 25 H 166 V 24 Z M 89,25 V 26 H 96 V 25 Z M 212,25 V 26 H 219 V 25 Z M 244,25 V 26 H 251 V 25 Z M 34,26 V 27 H 41 V 26 Z M 54,26 V 27 H 61 V 26 Z M 74,26 V 27 H 81 V 26 Z M 182,26 V 27 H 189 V 26 Z M 5,27 V 28 H 12 V 27 Z M 139,27 V 28 H 146 V 27 Z M 168,27 V 28 H 175 V 27 Z M 231,27 V 28 H 238 V 27 Z M 42,28 V 29 H 49 V 28 Z M 104,28 V 29 H 111 V 28 Z M 128,28 V 29 H 135 V 28 Z M 200,28 V 29 H 207 V 28 Z M 0,29 V 30 H 2 V 29 Z M 82,29 V 30 H 89 V 29 Z M 114,29 V 30 H 121 V 29 Z M 190,29 V 30 H 197 V 29 Z M 251,29 V 30 H 256 V 29 Z M 25,30 V 31 H 32 V 30 Z M 65,30 V 31 H 72 V 30 Z M 95,30 V 31 H 102 V 30 Z M 160,30 V 31 H 167 V 30 Z M 222,30 V 31 H 229 V 30 Z M 10,31 V 32 H 17 V 31 Z M 54,31 V 32 H 61 V 31 Z M 145,31 V 32 H 152 V 31 Z M 177,31 V 32 H 184 V 31 Z M 210,31 V 32 H 217 V 31 Z M 240,31 V 32 H 247 V 31 Z M 42,32 V 33 H 49 V 32 Z M 74,32 V 33 H 81 V 32 Z M 123,33 V 34 H 130 V 33 Z M 134,33 V 34 H 141 V 33 Z M 0,34 V 35 H 3 V 34 Z M 17,34 V 35 H 24 V 34 Z M 31,34 V 35 H 38 V 34 Z M 154,34 V 35 H 161 V 34 Z M 185,34 V 35 H 192 V 34 Z M 201,34 V 35 H 208 V 34 Z M 252,34 V 35 H 256 V 34 Z M 59,35 V 36 H 66 V 35 Z M 98,35 V 36 H 105 V 35 Z M 113,35 V 36 H 120 V 35 Z M 169,35 V 36 H 176 V 35 Z M 217,35 V 36 H 224 V 35 Z M 232,35 V 36 H 239 V 35 Z M 86,36 V 37 H 93 V 36 Z M 9,37 V 38 H 16 V 37 Z M 41,37 V 38 H 48 V 37 Z M 73,37 V 38 H 80 V 37 Z M 144,37 V 38 H 151 V 37 Z M 27,38 V 39 H 34 V 38 Z M 106,38 V 39 H 113 V 38 Z M 129,38 V 39 H 136 V 38 Z M 161,38 V 39 H 168 V 38 Z M 193,38 V 39 H 200 V 38 Z M 208,38 V 39 H 215 V 38 Z M 240,38 V 39 H 247 V 38 Z M 0,39 V 40 H 3 V 39 Z M 179,39 V 40 H 186 V 39 Z M 221,39 V 40 H 228 V 39 Z M 252,39 V 40 H 256 V 39 Z M 61,40 V 41 H 68 V 40 Z M 17,41 V 42 H 24 V 41 Z M 51,41 V 42 H 58 V 41 Z M 97,41 V 42 H 104 V 41 Z M 116,41 V 42 H 123 V 41 Z M 138,41 V 42 H 145 V 41 Z M 4,42 V 43 H 11 V 42 Z M 41,42 V 43 H 48 V 42 Z M 74,42 V 43 H 81 V 42 Z M 84,42 V 43 H 91 V 42 Z M 154,42 V 43 H 161 V 42 Z M 170,42 V 43 H 177 V 42 Z M 197,42 V 43 H 204 V 42 Z M 242,42 V 43 H 249 V 42 Z M 127,43 V 44 H 134 V 43 Z M 211,43 V 44 H 218 V 43 Z M 228,43 V 44 H 235 V 43 Z M 24,44 V 45 H 31 V 44 Z M 186,44 V 45 H 193 V 44 Z M 11,45 V 46 H 18 V 45 Z M 36,45 V 46 H 43 V 45 Z M 67,45 V 46 H 74 V 45 Z M 91,45 V 46 H 98 V 45 Z M 106,45 V 46 H 113 V 45 Z M 146,45 V 46 H 153 V 45 Z M 53,46 V 47 H 60 V 46 Z M 160,46 V 47 H 167 V 46 Z M 176,46 V 47 H 183 V 46 Z M 220,46 V 47 H 227 V 46 Z M 237,46 V 47 H 244 V 46 Z M 0,47 V 48 H 6 V 47 Z M 130,47 V 48 H 137 V 47 Z M 206,47 V 48 H 213 V 47 Z M 255,47 V 48 H 256 V 47 Z M 115,48 V 49 H 122 V 48 Z M 194,48 V 49 H 201 V 48 Z M 62,49 V 50 H 69 V 49 Z M 98,49 V 50 H 105 V 49 Z M 142,49 V 50 H 149 V 49 Z M 166,49 V 50 H 173 V 49 Z M 22,50 V 51 H 29 V 50 Z M 38,50 V 51 H 45 V 50 Z M 84,50 V 51 H 91 V 50 Z M 183,50 V 51 H 190 V 50 Z M 215,50 V 51 H 222 V 50 Z M 245,50 V 51 H 252 V 50 Z M 9,51 V 52 H 16 V 51 Z M 74,51 V 52 H 81 V 51 Z M 119,51 V 52 H 126 V 51 Z M 50,52 V 53 H 57 V 52 Z M 106,52 V 53 H 113 V 52 Z M 234,52 V 53 H 241 V 52 Z M 133,53 V 54 H 140 V 53 Z M 149,53 V 54 H 156 V 53 Z M 161,53 V 54 H 168 V 53 Z M 175,53 V 54 H 182 V 53 Z M 192,53 V 54 H 199 V 53 Z M 224,53 V 54 H 231 V 53 Z M 0,54 V 55 H 7 V 54 Z M 61,54 V 55 H 68 V 54 Z M 93,54 V 55 H 100 V 54 Z M 208,54 V 55 H 215 V 54 Z M 18,55 V 56 H 25 V 55 Z M 32,55 V 56 H 39 V 55 Z M 44,55 V 56 H 51 V 55 Z M 243,55 V 56 H 250 V 55 Z M 76,56 V 57 H 83 V 56 Z M 121,56 V 57 H 128 V 56 Z M 139,56 V 57 H 146 V 56 Z M 168,57 V 58 H 175 V 57 Z M 184,57 V 58 H 191 V 57 Z M 200,57 V 58 H 207 V 57 Z M 9,58 V 59 H 16 V 58 Z M 23,58 V 59 H 30 V 58 Z M 53,58 V 59 H 60 V 58 Z M 89,58 V 59 H 96 V 58 Z M 106,58 V 59 H 113 V 58 Z M 151,58 V 59 H 158 V 58 Z M 231,58 V 59 H 238 V 58 Z M 0,59 V 60 H 3 V 59 Z M 67,59 V 60 H 74 V 59 Z M 219,59 V 60 H 226 V 59 Z M 252,59 V 60 H 256 V 59 Z M 239,60 V 61 H 246 V 60 Z M 35,61 V 62 H 42 V 61 Z M 80,61 V 62 H 87 V 61 Z M 96,61 V 62 H 103 V 61 Z M 120,61 V 62 H 127 V 61 Z M 130,61 V 62 H 137 V 61 Z M 160,61 V 62 H 167 V 61 Z M 176,61 V 62 H 183 V 61 Z M 192,61 V 62 H 199 V 61 Z M 207,61 V 62 H 214 V 61 Z M 46,62 V 63 H 53 V 62 Z M 14,63 V 64 H 21 V 63 Z M 58,63 V 64 H 65 V 63 Z M 110,63 V 64 H 117 V 63 Z M 141,63 V 64 H 148 V 63 Z M 224,63 V 64 H 231 V 63 Z M 0,64 V 65 H 1 V 64 Z M 26,64 V 65 H 33 V 64 Z M 213,64 V 65 H 220 V 64 Z M 250,64 V 65 H 256 V 64 Z M 67,65 V 66 H 74 V 65 Z M 80,65 V 66 H 87 V 65 Z M 100,65 V 66 H 107 V 65 Z M 169,65 V 66 H 176 V 65 Z M 184,65 V 66 H 191 V 65 Z M 6,66 V 67 H 13 V 66 Z M 38,66 V 67 H 45 V 66 Z M 148,66 V 67 H 155 V 66 Z M 238,66 V 67 H 245 V 66 Z M 51,67 V 68 H 58 V 67 Z M 118,67 V 68 H 125 V 67 Z M 130,67 V 68 H 137 V 67 Z M 160,67 V 68 H 167 V 67 Z M 195,67 V 68 H 202 V 67 Z M 206,68 V 69 H 213 V 68 Z M 224,68 V 69 H 231 V 68 Z M 0,69 V 70 H 4 V 69 Z M 18,69 V 70 H 25 V 69 Z M 84,69 V 70 H 91 V 69 Z M 253,69 V 70 H 256 V 69 Z M 29,70 V 71 H 36 V 70 Z M 70,70 V 71 H 77 V 70 Z M 97,70 V 71 H 104 V 70 Z M 111,70 V 71 H 118 V 70 Z M 139,70 V 71 H 146 V 70 Z M 181,70 V 71 H 188 V 70 Z M 153,71 V 72 H 160 V 71 Z M 168,71 V 72 H 175 V 71 Z M 237,71 V 72 H 244 V 71 Z M 9,72 V 73 H 16 V 72 Z M 41,72 V 73 H 48 V 72 Z M 58,72 V 73 H 65 V 72 Z M 196,72 V 73 H 203 V 72 Z M 213,72 V 73 H 220 V 72 Z M 228,72 V 73 H 235 V 72 Z M 246,73 V 74 H 253 V 73 Z M 79,74 V 75 H 86 V 74 Z M 102,74 V 75 H 109 V 74 Z M 123,74 V 75 H 130 V 74 Z M 133,74 V 75 H 140 V 74 Z M 17,75 V 76 H 24 V 75 Z M 34,75 V 76 H 41 V 75 Z M 90,75 V 76 H 97 V 75 Z M 144,75 V 76 H 151 V 75 Z M 160,75 V 76 H 167 V 75 Z M 177,75 V 76 H 184 V 75 Z M 206,75 V 76 H 213 V 75 Z M 0,76 V 77 H 5 V 76 Z M 47,76 V 77 H 54 V 76 Z M 68,76 V 77 H 75 V 76 Z M 113,76 V 77 H 120 V 76 Z M 188,76 V 77 H 195 V 76 Z M 254,76 V 77 H 256 V 76 Z M 58,77 V 78 H 65 V 77 Z M 26,78 V 79.000001 H 33 V 78 Z M 215,78 V 79.000001 H 222 V 78 Z M 228,78 V 79.000001 H 235 V 78 Z M 11,79.000001 V 80.000001 H 18 V 79.000001 Z M 76,79.000001 V 80.000001 H 83 V 79.000001 Z M 104,79.000001 V 80.000001 H 111 V 79.000001 Z M 153,79.000001 V 80.000001 H 160 V 79.000001 Z M 169,79.000001 V 80.000001 H 176 V 79.000001 Z M 241,79.000001 V 80.000001 H 248 V 79.000001 Z M 120,80.000001 V 81.000001 H 127 V 80.000001 Z M 201,80.000001 V 81.000001 H 208 V 80.000001 Z M 2,81.000001 V 82.000001 H 9 V 81.000001 Z M 49,81.000001 V 82.000001 H 56 V 81.000001 Z M 89,81.000001 V 82.000001 H 96 V 81.000001 Z M 131,81.000001 V 82.000001 H 138 V 81.000001 Z M 144,81.000001 V 82.000001 H 151 V 81.000001 Z M 189,81.000001 V 82.000001 H 196 V 81.000001 Z M 17,82.000001 V 83.000001 H 24 V 82.000001 Z M 34,82.000001 V 83.000001 H 41 V 82.000001 Z M 64,82.000001 V 83.000001 H 71 V 82.000001 Z M 221,82.000001 V 83.000001 H 228 V 82.000001 Z M 159,83.000001 V 84.000001 H 166 V 83.000001 Z M 176,83.000001 V 84.000001 H 183 V 83.000001 Z M 245,83.000001 V 84.000001 H 252 V 83.000001 Z M 75,84.000001 V 85.000001 H 82 V 84.000001 Z M 98,84.000001 V 85.000001 H 105 V 84.000001 Z M 111,84.000001 V 85.000001 H 118 V 84.000001 Z M 231,84.000001 V 85.000001 H 238 V 84.000001 Z M 26,85.000001 V 86.000001 H 33 V 85.000001 Z M 43,85.000001 V 86.000001 H 50 V 85.000001 Z M 139,85.000001 V 86.000001 H 146 V 85.000001 Z M 198,85.000001 V 86.000001 H 205 V 85.000001 Z M 214,85.000001 V 86.000001 H 221 V 85.000001 Z M 0,86.000001 V 87.000001 H 2 V 86.000001 Z M 58,86.000001 V 87.000001 H 65 V 86.000001 Z M 122,86.000001 V 87.000001 H 129 V 86.000001 Z M 164,86.000001 V 87.000001 H 171 V 86.000001 Z M 251,86.000001 V 87.000001 H 256 V 86.000001 Z M 5,87.000001 V 88.000001 H 12 V 87.000001 Z M 90,87.000001 V 88.000001 H 97 V 87.000001 Z M 189,87.000001 V 88.000001 H 196 V 87.000001 Z M 81,88.000001 V 89.000001 H 88 V 88.000001 Z M 130,88.000001 V 89.000001 H 137 V 88.000001 Z M 175,88.000001 V 89.000001 H 182 V 88.000001 Z M 204,88.000001 V 89.000001 H 211 V 88.000001 Z M 20,89.000001 V 90.000001 H 27 V 89.000001 Z M 34,89.000001 V 90.000001 H 41 V 89.000001 Z M 66,89.000001 V 90.000001 H 73 V 89.000001 Z M 113,89.000001 V 90.000001 H 120 V 89.000001 Z M 144,89.000001 V 90.000001 H 151 V 89.000001 Z M 234,89.000001 V 90.000001 H 241 V 89.000001 Z M 97,90.000001 V 91.000001 H 104 V 90.000001 Z M 213,90.000001 V 91.000001 H 220 V 90.000001 Z M 9,91.000001 V 92.000001 H 16 V 91.000001 Z M 56,91.000001 V 92.000001 H 63 V 91.000001 Z M 160,91.000001 V 92.000001 H 167 V 91.000001 Z M 224,91.000001 V 92.000001 H 231 V 91.000001 Z M 248,91.000001 V 92.000001 H 255 V 91.000001 Z M 41,92.000001 V 93.000001 H 48 V 92.000001 Z M 106,92.000001 V 93.000001 H 113 V 92.000001 Z M 151,92.000001 V 93.000001 H 158 V 92.000001 Z M 184,92.000001 V 93.000001 H 191 V 92.000001 Z M 72,93.000001 V 94.000001 H 79 V 93.000001 Z M 87,93.000001 V 94.000001 H 94 V 93.000001 Z M 121,93.000001 V 94.000001 H 128 V 93.000001 Z M 137,93.000001 V 94.000001 H 144 V 93.000001 Z M 170,93.000001 V 94.000001 H 177 V 93.000001 Z M 202,93.000001 V 94.000001 H 209 V 93.000001 Z M 241,93.000001 V 94.000001 H 248 V 93.000001 Z M 28,94.000001 V 95.000001 H 35 V 94.000001 Z M 2,95.000001 V 96.000001 H 9 V 95.000001 Z M 16,95.000001 V 96.000001 H 23 V 95.000001 Z M 49,95.000001 V 96.000001 H 56 V 95.000001 Z M 192,95.000001 V 96.000001 H 199 V 95.000001 Z M 62,96.000001 V 97.000001 H 69 V 96.000001 Z M 212,96.000001 V 97.000001 H 219 V 96.000001 Z M 233,96.000001 V 97.000001 H 240 V 96.000001 Z M 79,97.000001 V 98.000001 H 86 V 97.000001 Z M 96,97.000001 V 98.000001 H 103 V 97.000001 Z M 110,97.000001 V 98.000001 H 117 V 97.000001 Z M 148,97.000001 V 98.000001 H 155 V 97.000001 Z M 180,97.000001 V 98.000001 H 187 V 97.000001 Z M 41,98.000001 V 99.000001 H 48 V 98.000001 Z M 168,98.000001 V 99.000001 H 175 V 98.000001 Z M 225,98.000001 V 99.000001 H 232 V 98.000001 Z M 31,99.000001 V 100 H 38 V 99.000001 Z M 121,99.000001 V 100 H 128 V 99.000001 Z M 136,99.000001 V 100 H 143 V 99.000001 Z M 203,99.000001 V 100 H 210 V 99.000001 Z M 0,100 V 101 H 4 V 100 Z M 13,100 V 101 H 20 V 100 Z M 71,100 V 101 H 78 V 100 Z M 89,100 V 101 H 96 V 100 Z M 158,100 V 101 H 165 V 100 Z M 190,100 V 101 H 197 V 100 Z M 240,100 V 101 H 247 V 100 Z M 253,100 V 101 H 256 V 100 Z M 105,101 V 102 H 112 V 101 Z M 45,102 V 103 H 52 V 102 Z M 128,102 V 103 H 135 V 102 Z M 145,102 V 103 H 152 V 102 Z M 222,102 V 103 H 229 V 102 Z M 21,103 V 104 H 28 V 103 Z M 59,103 V 104 H 66 V 103 Z M 178,103 V 104 H 185 V 103 Z M 4,104 V 105 H 11 V 104 Z M 165,104 V 105 H 172 V 104 Z M 196,104 V 105 H 203 V 104 Z M 214,104 V 105 H 221 V 104 Z M 234,104 V 105 H 241 V 104 Z M 246,104 V 105 H 253 V 104 Z M 71,105 V 106 H 78 V 105 Z M 91,105 V 106 H 98 V 105 Z M 31,106 V 107 H 38 V 106 Z M 104,106 V 107 H 111 V 106 Z M 119,106 V 107 H 126 V 106 Z M 151,106 V 107 H 158 V 106 Z M 207,106 V 107 H 214 V 106 Z M 13,107 V 108 H 20 V 107 Z M 41,107 V 108 H 48 V 107 Z M 132,107 V 108 H 139 V 107 Z M 184,107 V 108 H 191 V 107 Z M 51,108 V 109 H 58 V 108 Z M 62,108 V 109 H 69 V 108 Z M 79,108 V 109 H 86 V 108 Z M 227,108 V 109 H 234 V 108 Z M 2,109 V 110 H 9 V 109 Z M 22,109 V 110 H 29 V 109 Z M 246,109 V 110 H 253 V 109 Z M 89,110 V 111 H 96 V 110 Z M 116,110 V 111 H 123 V 110 Z M 137,110 V 111 H 144 V 110 Z M 155,110 V 111 H 162 V 110 Z M 168,110 V 111 H 175 V 110 Z M 195,110 V 111 H 202 V 110 Z M 215,110 V 111 H 222 V 110 Z M 101,111 V 112 H 108 V 111 Z M 179,111 V 112 H 186 V 111 Z M 236,112 V 113 H 243 V 112 Z M 13,113 V 114 H 20 V 113 Z M 31,113 V 114 H 38 V 113 Z M 45,113 V 114 H 52 V 113 Z M 69,113 V 114 H 76 V 113 Z M 128,113 V 114 H 135 V 113 Z M 147,113 V 114 H 154 V 113 Z M 204,113 V 114 H 211 V 113 Z M 0,114 V 115 H 7 V 114 Z M 81,114 V 115 H 88 V 114 Z M 159,114 V 115 H 166 V 114 Z M 188,114 V 115 H 195 V 114 Z M 219,114 V 115 H 226 V 114 Z M 105,115 V 116 H 112 V 115 Z M 175,115 V 116 H 182 V 115 Z M 21,116 V 117 H 28 V 116 Z M 53,116 V 117 H 60 V 116 Z M 120,116 V 117 H 127 V 116 Z M 138,116 V 117 H 145 V 116 Z M 62,117 V 118 H 69 V 117 Z M 89,117 V 118 H 96 V 117 Z M 226,117 V 118 H 233 V 117 Z M 246,117 V 118 H 253 V 117 Z M 10,118 V 119 H 17 V 118 Z M 42,118 V 119 H 49 V 118 Z M 74,118 V 119 H 81 V 118 Z M 111,118 V 119 H 118 V 118 Z M 164,118 V 119 H 171 V 118 Z M 194,118 V 119 H 201 V 118 Z M 207,118 V 119 H 214 V 118 Z M 235,118 V 119 H 242 V 118 Z M 98,119 V 120 H 105 V 119 Z M 146,119 V 120 H 153 V 119 Z M 30,120 V 121 H 37 V 120 Z M 130,120 V 121 H 137 V 120 Z M 218,120 V 121 H 225 V 120 Z M 18,121 V 122 H 25 V 121 Z M 50,121 V 122 H 57 V 121 Z M 176,121 V 122 H 183 V 121 Z M 2,122 V 123 H 9 V 122 Z M 158,122 V 123 H 165 V 122 Z M 187,122 V 123 H 194 V 122 Z M 202,122 V 123 H 209 V 122 Z M 65,123 V 124 H 72 V 123 Z M 79,123 V 124 H 86 V 123 Z M 122,123 V 124 H 129 V 123 Z M 246,123 V 124 H 253 V 123 Z M 34,124 V 125 H 41 V 124 Z M 90,124 V 125 H 97 V 124 Z M 109,124 V 125 H 116 V 124 Z M 140,124 V 125 H 147 V 124 Z M 234,124 V 125 H 241 V 124 Z M 153,125 V 126 H 160 V 125 Z M 170,125 V 126 H 177 V 125 Z M 219,125 V 126 H 226 V 125 Z M 10,126 V 127 H 17 V 126 Z M 54,126 V 127 H 61 V 126 Z M 99,126 V 127 H 106 V 126 Z M 22,127 V 128 H 29 V 127 Z M 40,127 V 128 H 47 V 127 Z M 71,127 V 128 H 78 V 127 Z M 133,127 V 128 H 140 V 127 Z M 206,127 V 128 H 213 V 127 Z M 2,128 V 129 H 9 V 128 Z M 180,128 V 129 H 187 V 128 Z M 192,128 V 129 H 199 V 128 Z M 227,128 V 129 H 234 V 128 Z M 245,128 V 129 H 252 V 128 Z M 106,129 V 130 H 113 V 129 Z M 122,129 V 130 H 129 V 129 Z M 213,129 V 130 H 220 V 129 Z M 30,130 V 131 H 37 V 130 Z M 62,130 V 131 H 69 V 130 Z M 76,130 V 131 H 83 V 130 Z M 91,130 V 131 H 98 V 130 Z M 138,130 V 131 H 145 V 130 Z M 152,130 V 131 H 159 V 130 Z M 167,130 V 131 H 174 V 130 Z M 48,131 V 132 H 55 V 131 Z M 199,131 V 132 H 206 V 131 Z M 11,132 V 133 H 18 V 132 Z M 117,132 V 133 H 124 V 132 Z M 237,132 V 133 H 244 V 132 Z M 0,133 V 134 H 3 V 133 Z M 22,133 V 134 H 29 V 133 Z M 177,133 V 134 H 184 V 133 Z M 252,133 V 134 H 256 V 133 Z M 84,134 V 135 H 91 V 134 Z M 99,134 V 135 H 106 V 134 Z M 162,134 V 135 H 169 V 134 Z M 212,134 V 135 H 219 V 134 Z M 227,134 V 135 H 234 V 134 Z M 43,135 V 136 H 50 V 135 Z M 59,135 V 136 H 66 V 135 Z M 130,135 V 136 H 137 V 135 Z M 144,135 V 136 H 151 V 135 Z M 196,135 V 136 H 203 V 135 Z M 116,136 V 137 H 123 V 136 Z M 185,136 V 137 H 192 V 136 Z M 0,137 V 138 H 2 V 137 Z M 14,137 V 138 H 21 V 137 Z M 31,137 V 138 H 38 V 137 Z M 75,137 V 138 H 82 V 137 Z M 155,137 V 138 H 162 V 137 Z M 251,137 V 138 H 256 V 137 Z M 63,138 V 139 H 70 V 138 Z M 90,138 V 139 H 97 V 138 Z M 106,138 V 139 H 113 V 138 Z M 173,138 V 139 H 180 V 138 Z M 203,138 V 139 H 210 V 138 Z M 235,138 V 139 H 242 V 138 Z M 128,139 V 140 H 135 V 139 Z M 223,139 V 140 H 230 V 139 Z M 39,140 V 141 H 46 V 140 Z M 0,141 V 142 H 6 V 141 Z M 11,141 V 142 H 18 V 141 Z M 26,141 V 142 H 33 V 141 Z M 82,141 V 142 H 89 V 141 Z M 146,141 V 142 H 153 V 141 Z M 160,141 V 142 H 167 V 141 Z M 212,141 V 142 H 219 V 141 Z M 242,141 V 142 H 249 V 141 Z M 255,141 V 142 H 256 V 141 Z M 46,142 V 143 H 53 V 142 Z M 114,142 V 143 H 121 V 142 Z M 184,142 V 143 H 191 V 142 Z M 61,143 V 144 H 68 V 143 Z M 74,143 V 144 H 81 V 143 Z M 95,143 V 144 H 102 V 143 Z M 138,143 V 144 H 145 V 143 Z M 171,143 V 144 H 178 V 143 Z M 127,144 V 145 H 134 V 144 Z M 204,144 V 145 H 211 V 144 Z M 222,144 V 145 H 229 V 144 Z M 50,145 V 146 H 57 V 145 Z M 106,145 V 146 H 113 V 145 Z M 190,145 V 146 H 197 V 145 Z M 238,145 V 146 H 245 V 145 Z M 0,146 V 147 H 6 V 146 Z M 14,146 V 147 H 21 V 146 Z M 255,146 V 147 H 256 V 146 Z M 23,147 V 148 H 30 V 147 Z M 39,147 V 148 H 46 V 147 Z M 150,147 V 148 H 157 V 147 Z M 164,147 V 148 H 171 V 147 Z M 178,147 V 148 H 185 V 147 Z M 68,148 V 149 H 75 V 148 Z M 84,148 V 149 H 91 V 148 Z M 98,148 V 149 H 105 V 148 Z M 116,148 V 149 H 123 V 148 Z M 212,148 V 149 H 219 V 148 Z M 227,148 V 149 H 234 V 148 Z M 54,149 V 150 H 61 V 149 Z M 129,149 V 150 H 136 V 149 Z M 141,149 V 150 H 148 V 149 Z M 197,149 V 150 H 204 V 149 Z M 245,149 V 150 H 252 V 149 Z M 8,150 V 151 H 15 V 150 Z M 31,150 V 151 H 38 V 150 Z M 77,151 V 152 H 84 V 151 Z M 107,151 V 152 H 114 V 151 Z M 160,151 V 152 H 167 V 151 Z M 187,151 V 152 H 194 V 151 Z M 61,152 V 153 H 68 V 152 Z M 173,152 V 153 H 180 V 152 Z M 205,152 V 153 H 212 V 152 Z M 219,152 V 153 H 226 V 152 Z M 236,152 V 153 H 243 V 152 Z M 0,153 V 154 H 1 V 153 Z M 121,153 V 154 H 128 V 153 Z M 151,153 V 154 H 158 V 153 Z M 250,153 V 154 H 256 V 153 Z M 25,154 V 155 H 32 V 154 Z M 39,154 V 155 H 46 V 154 Z M 96,154 V 155 H 103 V 154 Z M 7,155 V 156 H 14 V 155 Z M 82,155 V 156 H 89 V 155 Z M 111,155 V 156 H 118 V 155 Z M 230,155 V 156 H 237 V 155 Z M 48,156 V 157 H 55 V 156 Z M 127,156 V 157 H 134 V 156 Z M 143,156 V 157 H 150 V 156 Z M 167,156 V 157 H 174 V 156 Z M 182,156 V 157 H 189 V 156 Z M 198,156 V 157 H 205 V 156 Z M 17,157 V 158 H 24 V 157 Z M 61,157 V 158 H 68 V 157 Z M 73,157 V 158 H 80 V 157 Z M 216,157 V 158 H 223 V 157 Z M 0,158 V 159 H 6 V 158 Z M 33,158 V 159 H 40 V 158 Z M 89,158 V 159 H 96 V 158 Z M 155,158 V 159 H 162 V 158 Z M 241,158 V 159 H 248 V 158 Z M 255,158 V 159 H 256 V 158 Z M 104,159 V 160 H 111 V 159 Z M 136,159 V 160 H 143 V 159 Z M 207,159 V 160 H 214 V 159 Z M 10,160 V 161 H 17 V 160 Z M 177,160 V 161 H 184 V 160 Z M 190,160 V 161 H 197 V 160 Z M 223,160 V 161 H 230 V 160 Z M 55,161 V 162 H 62 V 161 Z M 23,162 V 163 H 30 V 162 Z M 43,162 V 163 H 50 V 162 Z M 82,162 V 163 H 89 V 162 Z M 97,162 V 163 H 104 V 162 Z M 113,162 V 163 H 120 V 162 Z M 125,162 V 163 H 132 V 162 Z M 163,162 V 163 H 170 V 162 Z M 233,162 V 163 H 240 V 162 Z M 249,162 V 163 H 256 V 162 Z M 145,163 V 164 H 152 V 163 Z M 72,164 V 165 H 79 V 164 Z M 199,164 V 165 H 206 V 164 Z M 0,165 V 166 H 7 V 165 Z M 31,165 V 166 H 38 V 165 Z M 62,165 V 166 H 69 V 165 Z M 134,165 V 166 H 141 V 165 Z M 156,165 V 166 H 163 V 165 Z M 171,165 V 166 H 178 V 165 Z M 186,165 V 166 H 193 V 165 Z M 209,165 V 166 H 216 V 165 Z M 13,166 V 167 H 20 V 166 Z M 89,166 V 167 H 96 V 166 Z M 221,166 V 167 H 228 V 166 Z M 238,166 V 167 H 245 V 166 Z M 52,167 V 168 H 59 V 167 Z M 101,167 V 168 H 108 V 167 Z M 123,167 V 168 H 130 V 167 Z M 40,168 V 169 H 47 V 168 Z M 112,168 V 169 H 119 V 168 Z M 146,168 V 169 H 153 V 168 Z M 23,169 V 170 H 30 V 169 Z M 189,169 V 170 H 196 V 169 Z M 248,169 V 170 H 255 V 169 Z M 9,170 V 171 H 16 V 170 Z M 69,170 V 171 H 76 V 170 Z M 167,170 V 171 H 174 V 170 Z M 200,170 V 171 H 207 V 170 Z M 228,170 V 171 H 235 V 170 Z M 90,171 V 172 H 97 V 171 Z M 138,171 V 172 H 145 V 171 Z M 218,171 V 172 H 225 V 171 Z M 32,172 V 173 H 39 V 172 Z M 46,172 V 173 H 53 V 172 Z M 78,172 V 173 H 85 V 172 Z M 124,172 V 173 H 131 V 172 Z M 156,172 V 173 H 163 V 172 Z M 184,172 V 173 H 191 V 172 Z M 240,172 V 173 H 247 V 172 Z M 1,173 V 174 H 8 V 173 Z M 62,173 V 174 H 69 V 173 Z M 108,173 V 174 H 115 V 173 Z M 173,173 V 174 H 180 V 173 Z M 208,173 V 174 H 215 V 173 Z M 19,174 V 175 H 26 V 174 Z M 54,175 V 176 H 61 V 175 Z M 99,175 V 176 H 106 V 175 Z M 117,175 V 176 H 124 V 175 Z M 148,175 V 176 H 155 V 175 Z M 231,175 V 176 H 238 V 175 Z M 38,176 V 177 H 45 V 176 Z M 86,176 V 177 H 93 V 176 Z M 133,176 V 177 H 140 V 176 Z M 248,176 V 177 H 255 V 176 Z M 167,177 V 178 H 174 V 177 Z M 186,177 V 178 H 193 V 177 Z M 201,177 V 178 H 208 V 177 Z M 217,177 V 178 H 224 V 177 Z M 16,178 V 179 H 23 V 178 Z M 75,178 V 179 H 82 V 178 Z M 0,179 V 180 H 7 V 179 Z M 31,179 V 180 H 38 V 179 Z M 61,179 V 180 H 68 V 179 Z M 94,179 V 180 H 101 V 179 Z M 139,179 V 180 H 146 V 179 Z M 156,179 V 180 H 163 V 179 Z M 179,179 V 180 H 186 V 179 Z M 47,180 V 181 H 54 V 180 Z M 108,180 V 181 H 115 V 180 Z M 126,180 V 181 H 133 V 180 Z M 193,180 V 181 H 200 V 180 Z M 224,180 V 181 H 231 V 180 Z M 240,180 V 181 H 247 V 180 Z M 208,181 V 182 H 215 V 181 Z M 69,182 V 183 H 76 V 182 Z M 9,183 V 184 H 16 V 183 Z M 25,183 V 184 H 32 V 183 Z M 85,183 V 184 H 92 V 183 Z M 117,183 V 184 H 124 V 183 Z M 148,183 V 184 H 155 V 183 Z M 171,183 V 184 H 178 V 183 Z M 233,184 V 185 H 240 V 184 Z M 0,185 V 186 H 6 V 185 Z M 46,185 V 186 H 53 V 185 Z M 94,185 V 186 H 101 V 185 Z M 138,185 V 186 H 145 V 185 Z M 162,185 V 186 H 169 V 185 Z M 194,185 V 186 H 201 V 185 Z M 222,185 V 186 H 229 V 185 Z M 242,185 V 186 H 249 V 185 Z M 255,185 V 186 H 256 V 185 Z M 32,186 V 187 H 39 V 186 Z M 62,186 V 187 H 69 V 186 Z M 78,186 V 187 H 85 V 186 Z M 110,186 V 187 H 117 V 186 Z M 179,186 V 187 H 186 V 186 Z M 210,186 V 187 H 217 V 186 Z M 17,187 V 188 H 24 V 187 Z M 150,188 V 189 H 157 V 188 Z M 54,189 V 190 H 61 V 189 Z M 71,189 V 190 H 78 V 189 Z M 102,189 V 190 H 109 V 189 Z M 118,189 V 190 H 125 V 189 Z M 132,189 V 190 H 139 V 189 Z M 200,189 V 190 H 207 V 189 Z M 247,189 V 190 H 254 V 189 Z M 7,190 V 191 H 14 V 190 Z M 39,190 V 191 H 46 V 190 Z M 169,190 V 191 H 176 V 190 Z M 185,190 V 191 H 192 V 190 Z M 216,190 V 191 H 223 V 190 Z M 232,190 V 191 H 239 V 190 Z M 28,191 V 192 H 35 V 191 Z M 91,191 V 192 H 98 V 191 Z M 15,192 V 193 H 22 V 192 Z M 79,192 V 193 H 86 V 192 Z M 123,192 V 193 H 130 V 192 Z M 142,192 V 193 H 149 V 192 Z M 157,192 V 193 H 164 V 192 Z M 0,193 V 194 H 7 V 193 Z M 45,193 V 194 H 52 V 193 Z M 62,193 V 194 H 69 V 193 Z M 176,193 V 194 H 183 V 193 Z M 208,193 V 194 H 215 V 193 Z M 103,194 V 195 H 110 V 194 Z M 192,194 V 195 H 199 V 194 Z M 224,194 V 195 H 231 V 194 Z M 240,194 V 195 H 247 V 194 Z M 133,195 V 196 H 140 V 195 Z M 27,196 V 197 H 34 V 196 Z M 54,196 V 197 H 61 V 196 Z M 72,196 V 197 H 79 V 196 Z M 146,196 V 197 H 153 V 196 Z M 165,196 V 197 H 172 V 196 Z M 249,196 V 197 H 256 V 196 Z M 15,197 V 198 H 22 V 197 Z M 85,197 V 198 H 92 V 197 Z M 109,197 V 198 H 116 V 197 Z M 186,197 V 198 H 193 V 197 Z M 218,197 V 198 H 225 V 197 Z M 127,198 V 199 H 134 V 198 Z M 156,198 V 199 H 163 V 198 Z M 201,198 V 199 H 208 V 198 Z M 234,198 V 199 H 241 V 198 Z M 32,199 V 200 H 39 V 199 Z M 63,199 V 200 H 70 V 199 Z M 95,199 V 200 H 102 V 199 Z M 116,199 V 200 H 123 V 199 Z M 45,200 V 201 H 52 V 200 Z M 177,200 V 201 H 184 V 200 Z M 3,201 V 202 H 10 V 201 Z M 146,201 V 202 H 153 V 201 Z M 212,201 V 202 H 219 V 201 Z M 248,201 V 202 H 255 V 201 Z M 21,202 V 203 H 28 V 202 Z M 73,202 V 203 H 80 V 202 Z M 89,202 V 203 H 96 V 202 Z M 163,202 V 203 H 170 V 202 Z M 194,202 V 203 H 201 V 202 Z M 226,202 V 203 H 233 V 202 Z M 55,203 V 204 H 62 V 203 Z M 136,203 V 204 H 143 V 203 Z M 9,204 V 205 H 16 V 204 Z M 43,204 V 205 H 50 V 204 Z M 104,204 V 205 H 111 V 204 Z M 118,204 V 205 H 125 V 204 Z M 203,204 V 205 H 210 V 204 Z M 29,205 V 206 H 36 V 205 Z M 82,205 V 206 H 89 V 205 Z M 170,205 V 206 H 177 V 205 Z M 184,205 V 206 H 191 V 205 Z M 217,205 V 206 H 224 V 205 Z M 234,205 V 206 H 241 V 205 Z M 125,206 V 207 H 132 V 206 Z M 152,206 V 207 H 159 V 206 Z M 246,206 V 207 H 253 V 206 Z M 18,207 V 208 H 25 V 207 Z M 61,207 V 208 H 68 V 207 Z M 96,207 V 208 H 103 V 207 Z M 192,208 V 209 H 199 V 208 Z M 5,209 V 210 H 12 V 209 Z M 38,209 V 210 H 45 V 209 Z M 72,209 V 210 H 79 V 209 Z M 135,209 V 210 H 142 V 209 Z M 161,209 V 210 H 168 V 209 Z M 176,209 V 210 H 183 V 209 Z M 53,210 V 211 H 60 V 210 Z M 89,210 V 211 H 96 V 210 Z M 104,210 V 211 H 111 V 210 Z M 121,210 V 211 H 128 V 210 Z M 146,210 V 211 H 153 V 210 Z M 207,210 V 211 H 214 V 210 Z M 221,210 V 211 H 228 V 210 Z M 0,211 V 212 H 1 V 211 Z M 26,211 V 212 H 33 V 211 Z M 237,211 V 212 H 244 V 211 Z M 250,211 V 212 H 256 V 211 Z M 65,213 V 214 H 72 V 213 Z M 114,213 V 214 H 121 V 213 Z M 167,213 V 214 H 174 V 213 Z M 183,213 V 214 H 190 V 213 Z M 197,213 V 214 H 204 V 213 Z M 229,213 V 214 H 236 V 213 Z M 3,214 V 215 H 10 V 214 Z M 15,214 V 215 H 22 V 214 Z M 44,214 V 215 H 51 V 214 Z M 130,214 V 215 H 137 V 214 Z M 74,215 V 216 H 81 V 215 Z M 86,215 V 216 H 93 V 215 Z M 147,215 V 216 H 154 V 215 Z M 158,215 V 216 H 165 V 215 Z M 207,215 V 216 H 214 V 215 Z M 31,216 V 217 H 38 V 216 Z M 56,216 V 217 H 63 V 216 Z M 95,216 V 217 H 102 V 216 Z M 219,216 V 217 H 226 V 216 Z M 0,217 V 218 H 2 V 217 Z M 106,217 V 218 H 113 V 217 Z M 137,217 V 218 H 144 V 217 Z M 236,217 V 218 H 243 V 217 Z M 251,217 V 218 H 256 V 217 Z M 19,218 V 219 H 26 V 218 Z M 40,218 V 219 H 47 V 218 Z M 118,218 V 219 H 125 V 218 Z M 168,218 V 219 H 175 V 218 Z M 199,218 V 219 H 206 V 218 Z M 80,219 V 220 H 87 V 219 Z M 185,219 V 220 H 192 V 219 Z M 65,220 V 221 H 72 V 220 Z M 213,220 V 221 H 220 V 220 Z M 243,220 V 221 H 250 V 220 Z M 9,221 V 222 H 16 V 221 Z M 52,221 V 222 H 59 V 221 Z M 129,221 V 222 H 136 V 221 Z M 177,221 V 222 H 184 V 221 Z M 228,221 V 222 H 235 V 221 Z M 30,222 V 223 H 37 V 222 Z M 92,222 V 223 H 99 V 222 Z M 107,222 V 223 H 114 V 222 Z M 148,222 V 223 H 155 V 222 Z M 161,222 V 223 H 168 V 222 Z M 192,222 V 223 H 199 V 222 Z M 0,223 V 224 H 5 V 223 Z M 76,223 V 224 H 83 V 223 Z M 138,223 V 224 H 145 V 223 Z M 254,223 V 224 H 256 V 223 Z M 17,224 V 225 H 24 V 224 Z M 45,224 V 225 H 52 V 224 Z M 122,224 V 225 H 129 V 224 Z M 207,224 V 225 H 214 V 224 Z M 222,224 V 225 H 229 V 224 Z M 100,225 V 226 H 107 V 225 Z M 242,225 V 226 H 249 V 225 Z M 69,226 V 227 H 76 V 226 Z M 157,226 V 227 H 164 V 226 Z M 6,227 V 228 H 13 V 227 Z M 57,227 V 228 H 64 V 227 Z M 114,227 V 228 H 121 V 227 Z M 168,227 V 228 H 175 V 227 Z M 179,227 V 228 H 186 V 227 Z M 197,227 V 228 H 204 V 227 Z M 230,227 V 228 H 237 V 227 Z M 26,228 V 229 H 33 V 228 Z M 38,228 V 229 H 45 V 228 Z M 91,228 V 229 H 98 V 228 Z M 128,228 V 229 H 135 V 228 Z M 145,228 V 229 H 152 V 228 Z M 0,229 V 230 H 4 V 229 Z M 47,229 V 230 H 54 V 229 Z M 79,229 V 230 H 86 V 229 Z M 188,229 V 230 H 195 V 229 Z M 253,229 V 230 H 256 V 229 Z M 16,230 V 231 H 23 V 230 Z M 204,230 V 231 H 211 V 230 Z M 219,230 V 231 H 226 V 230 Z M 239,230 V 231 H 246 V 230 Z M 103,231 V 232 H 110 V 231 Z M 137,231 V 232 H 144 V 231 Z M 155,231 V 232 H 162 V 231 Z M 68,232 V 233 H 75 V 232 Z M 118,232 V 233 H 125 V 232 Z M 86,233 V 234 H 93 V 233 Z M 165,233 V 234 H 172 V 233 Z M 185,233 V 234 H 192 V 233 Z M 212,233 V 234 H 219 V 233 Z M 9,234 V 235 H 16 V 234 Z M 25,234 V 235 H 32 V 234 Z M 40,234 V 235 H 47 V 234 Z M 56,234 V 235 H 63 V 234 Z M 175,234 V 235 H 182 V 234 Z M 233,234 V 235 H 240 V 234 Z M 249,234 V 235 H 256 V 234 Z M 94,235 V 236 H 101 V 235 Z M 129,235 V 236 H 136 V 235 Z M 143,235 V 236 H 150 V 235 Z M 63,236 V 237 H 70 V 236 Z M 108,236 V 237 H 115 V 236 Z M 192,236 V 237 H 199 V 236 Z M 223,236 V 237 H 230 V 236 Z M 1,237 V 238 H 8 V 237 Z M 33,237 V 238 H 40 V 237 Z M 79,237 V 238 H 86 V 237 Z M 155,237 V 238 H 162 V 237 Z M 17,238 V 239 H 24 V 238 Z M 49,238 V 239 H 56 V 238 Z M 119,238 V 239 H 126 V 238 Z M 203,238 V 239 H 210 V 238 Z M 241,238 V 239 H 248 V 238 Z M 100,239 V 240 H 107 V 239 Z M 183,239 V 240 H 190 V 239 Z M 215,239 V 240 H 222 V 239 Z M 69,240 V 241 H 76 V 240 Z M 132,240 V 241 H 139 V 240 Z M 164,240 V 241 H 171 V 240 Z M 25,241 V 242 H 32 V 241 Z M 40,241 V 242 H 47 V 241 Z M 226,241 V 242 H 233 V 241 Z M 249,241 V 242 H 256 V 241 Z M 76,242 V 243 H 83 V 242 Z M 90,242 V 243 H 97 V 242 Z M 153,242 V 243 H 160 V 242 Z M 175,242 V 243 H 182 V 242 Z M 109,243 V 244 H 116 V 243 Z M 122,243 V 244 H 129 V 243 Z M 142,243 V 244 H 149 V 243 Z M 191,243 V 244 H 198 V 243 Z M 209,243 V 244 H 216 V 243 Z M 2,244 V 245 H 9 V 244 Z M 16,244 V 245 H 23 V 244 Z M 50,244 V 245 H 57 V 244 Z M 242,244 V 245 H 249 V 244 Z M 33,245 V 246 H 40 V 245 Z M 64,245 V 246 H 71 V 245 Z M 99,245 V 246 H 106 V 245 Z M 131,245 V 246 H 138 V 245 Z M 201,245 V 246 H 208 V 245 Z M 232,245 V 246 H 239 V 245 Z M 170,246 V 247 H 177 V 246 Z M 219,246 V 247 H 226 V 246 Z M 79,247 V 248 H 86 V 247 Z M 160,247 V 248 H 167 V 247 Z M 3,248 V 249 H 10 V 248 Z M 24,248 V 249 H 31 V 248 Z M 44,248 V 249 H 51 V 248 Z M 57,248 V 249 H 64 V 248 Z M 107,248 V 249 H 114 V 248 Z M 181,248 V 249 H 188 V 248 Z M 91,249 V 250 H 98 V 249 Z M 123,249 V 250 H 130 V 249 Z M 139,249 V 250 H 146 V 249 Z M 151,249 V 250 H 158 V 249 Z M 194,249 V 250 H 201 V 249 Z M 14,250 V 251 H 21 V 250 Z M 229,250 V 251 H 236 V 250 Z M 243,250 V 251 H 250 V 250 Z M 65,251 V 252 H 72 V 251 Z M 81,251 V 252 H 88 V 251 Z M 113,251 V 252 H 120 V 251 Z M 204,251 V 252 H 211 V 251 Z M 34,252 V 253 H 41 V 252 Z M 187,252 V 253 H 194 V 252 Z M 218,252 V 253 H 225 V 252 Z M 2,253 V 254 H 9 V 253 Z M 51,253 V 254 H 58 V 253 Z M 98,253 V 254 H 105 V 253 Z M 130,253 V 254 H 137 V 253 Z M 170,253 V 254 H 177 V 253 Z M 74,254 V 255 H 81 V 254 Z M 147,254 V 255 H 154 V 254 Z M 159,254 V 255 H 166 V 254 Z M 233,254 V 255 H 240 V 254 Z M 23,255 V 256 H 30 V 255 Z M 104,255 V 256 H 111 V 255 Z M 178,255 V 256 H 185 V 255 Z M 210,255 V 256 H 217 V 255 Z M 249,255 V 256 H 256 V 255 Z"
    id="path2" />
</svg>
